<svg xmlns="http://www.w3.org/2000/svg" xmlns:xlink="http://www.w3.org/1999/xlink" version="1.1" width="256" height="256" viewBox="0 0 256 256" xml:space="preserve">

<defs>
</defs>
<g style="stroke: none; stroke-width: 0; stroke-dasharray: none; stroke-linecap: butt; stroke-linejoin: miter; stroke-miterlimit: 10; fill: none; fill-rule: nonzero; opacity: 1;" transform="translate(1.4065934065934016 1.4065934065934016) scale(2.81 2.81)" >
	<circle cx="45" cy="45" r="45" style="stroke: none; stroke-width: 1; stroke-dasharray: none; stroke-linecap: butt; stroke-linejoin: miter; stroke-miterlimit: 10; fill: rgb(32,196,203); fill-rule: nonzero; opacity: 1;" transform="  matrix(1 0 0 1 0 0) "/>
	<path d="M 33.643 48.187 c -7.877 0 -14.287 -6.409 -14.287 -14.286 s 6.409 -14.287 14.287 -14.287 S 47.93 26.023 47.93 33.9 S 41.521 48.187 33.643 48.187 z M 33.643 25.614 c -4.569 0 -8.287 3.717 -8.287 8.287 s 3.717 8.287 8.287 8.287 S 41.93 38.47 41.93 33.9 S 38.212 25.614 33.643 25.614 z" style="stroke: none; stroke-width: 1; stroke-dasharray: none; stroke-linecap: butt; stroke-linejoin: miter; stroke-miterlimit: 10; fill: rgb(27,167,173); fill-rule: nonzero; opacity: 1;" transform=" matrix(1 0 0 1 0 0) " stroke-linecap="round" />
	<path d="M 49.246 67.32 v -7.814 c 0 -6.067 -4.964 -11.032 -11.032 -11.032 h -7.814 c -6.067 0 -11.032 4.964 -11.032 11.032 v 7.814 H 49.246" style="stroke: none; stroke-width: 1; stroke-dasharray: none; stroke-linecap: butt; stroke-linejoin: miter; stroke-miterlimit: 10; fill: rgb(27,167,173); fill-rule: nonzero; opacity: 1;" transform=" matrix(1 0 0 1 0 0) " stroke-linecap="round" />
	<path d="M 49.246 70.32 H 19.369 c -1.657 0 -3 -1.343 -3 -3 v -7.814 c 0 -7.737 6.294 -14.032 14.032 -14.032 h 7.814 c 7.737 0 14.031 6.295 14.031 14.032 v 7.814 C 52.246 68.978 50.903 70.32 49.246 70.32 z M 22.369 64.32 h 23.877 v -4.814 c 0 -4.429 -3.603 -8.032 -8.031 -8.032 H 30.4 c -4.429 0 -8.032 3.604 -8.032 8.032 V 64.32 z" style="stroke: none; stroke-width: 1; stroke-dasharray: none; stroke-linecap: butt; stroke-linejoin: miter; stroke-miterlimit: 10; fill: rgb(27,167,173); fill-rule: nonzero; opacity: 1;" transform=" matrix(1 0 0 1 0 0) " stroke-linecap="round" />
	<circle cx="36.676" cy="30.866" r="11.286" style="stroke: none; stroke-width: 1; stroke-dasharray: none; stroke-linecap: butt; stroke-linejoin: miter; stroke-miterlimit: 10; fill: rgb(255,255,255); fill-rule: nonzero; opacity: 1;" transform="  matrix(1 0 0 1 0 0) "/>
	<path d="M 36.68 45.15 c -7.877 0 -14.287 -6.409 -14.287 -14.287 s 6.409 -14.286 14.287 -14.286 s 14.286 6.409 14.286 14.286 S 44.557 45.15 36.68 45.15 z M 36.68 22.578 c -4.569 0 -8.287 3.717 -8.287 8.286 c 0 4.569 3.717 8.287 8.287 8.287 c 4.569 0 8.286 -3.717 8.286 -8.287 C 44.966 26.295 41.249 22.578 36.68 22.578 z" style="stroke: none; stroke-width: 1; stroke-dasharray: none; stroke-linecap: butt; stroke-linejoin: miter; stroke-miterlimit: 10; fill: rgb(255,255,255); fill-rule: nonzero; opacity: 1;" transform=" matrix(1 0 0 1 0 0) " stroke-linecap="round" />
	<path d="M 51.807 64.759 v -7.814 c 0 -6.067 -4.964 -11.032 -11.032 -11.032 h -7.814 c -6.067 0 -11.032 4.964 -11.032 11.032 v 7.814 H 51.807" style="stroke: none; stroke-width: 1; stroke-dasharray: none; stroke-linecap: butt; stroke-linejoin: miter; stroke-miterlimit: 10; fill: rgb(255,255,255); fill-rule: nonzero; opacity: 1;" transform=" matrix(1 0 0 1 0 0) " stroke-linecap="round" />
	<path d="M 51.808 67.759 H 21.93 c -1.657 0 -3 -1.343 -3 -3 v -7.813 c 0 -7.737 6.294 -14.032 14.032 -14.032 h 7.814 c 7.737 0 14.032 6.295 14.032 14.032 v 7.813 C 54.808 66.416 53.465 67.759 51.808 67.759 z M 24.93 61.759 h 23.878 v -4.813 c 0 -4.429 -3.603 -8.032 -8.032 -8.032 h -7.814 c -4.429 0 -8.032 3.604 -8.032 8.032 V 61.759 z" style="stroke: none; stroke-width: 1; stroke-dasharray: none; stroke-linecap: butt; stroke-linejoin: miter; stroke-miterlimit: 10; fill: rgb(255,255,255); fill-rule: nonzero; opacity: 1;" transform=" matrix(1 0 0 1 0 0) " stroke-linecap="round" />
	<circle cx="63.149" cy="59.189" r="16.219" style="stroke: none; stroke-width: 1; stroke-dasharray: none; stroke-linecap: butt; stroke-linejoin: miter; stroke-miterlimit: 10; fill: rgb(32,196,203); fill-rule: nonzero; opacity: 1;" transform="  matrix(1 0 0 1 0 0) "/>
	<path d="M 69.48 63.864 H 52.788 c -1.657 0 -3 -1.343 -3 -3 s 1.343 -3 3 -3 H 69.48 c 1.657 0 3 1.343 3 3 S 71.138 63.864 69.48 63.864 z" style="stroke: none; stroke-width: 1; stroke-dasharray: none; stroke-linecap: butt; stroke-linejoin: miter; stroke-miterlimit: 10; fill: rgb(27,167,173); fill-rule: nonzero; opacity: 1;" transform=" matrix(1 0 0 1 0 0) " stroke-linecap="round" />
	<path d="M 61.135 72.211 c -1.657 0 -3 -1.343 -3 -3 V 52.519 c 0 -1.657 1.343 -3 3 -3 s 3 1.343 3 3 v 16.692 C 64.135 70.868 62.792 72.211 61.135 72.211 z" style="stroke: none; stroke-width: 1; stroke-dasharray: none; stroke-linecap: butt; stroke-linejoin: miter; stroke-miterlimit: 10; fill: rgb(27,167,173); fill-rule: nonzero; opacity: 1;" transform=" matrix(1 0 0 1 0 0) " stroke-linecap="round" />
	<path d="M 72.111 60.71 H 55.419 c -1.657 0 -3 -1.343 -3 -3 s 1.343 -3 3 -3 h 16.692 c 1.657 0 3 1.343 3 3 S 73.769 60.71 72.111 60.71 z" style="stroke: none; stroke-width: 1; stroke-dasharray: none; stroke-linecap: butt; stroke-linejoin: miter; stroke-miterlimit: 10; fill: rgb(255,255,255); fill-rule: nonzero; opacity: 1;" transform=" matrix(1 0 0 1 0 0) " stroke-linecap="round" />
	<path d="M 63.766 69.056 c -1.657 0 -3 -1.343 -3 -3 V 49.363 c 0 -1.657 1.343 -3 3 -3 s 3 1.343 3 3 v 16.692 C 66.766 67.713 65.423 69.056 63.766 69.056 z" style="stroke: none; stroke-width: 1; stroke-dasharray: none; stroke-linecap: butt; stroke-linejoin: miter; stroke-miterlimit: 10; fill: rgb(255,255,255); fill-rule: nonzero; opacity: 1;" transform=" matrix(1 0 0 1 0 0) " stroke-linecap="round" />
</g>
</svg>